<?xml version="1.0" encoding="UTF-8"?><svg id="Capa_2" xmlns="http://www.w3.org/2000/svg" viewBox="0 0 338.48 57.24"><defs><style>.cls-1{fill:#ff8a8a;}.cls-2{fill:#a3675f;}</style></defs><g id="Capa_1-2"><g><g><path class="cls-1" d="M21.41,27.04c1.07-1.29,2.16-2.56,2.5-4.27,.07-.34,.13-.69,.28-.99,.85-1.63,1.82-3.22,2.58-4.89,.48-1.05,1.05-2.13,1.01-3.33-.04-1.05-.25-2.09-1.47-2.49-.27-.09-.46-.3-.7-.44-1.18-.68-2.92-1.2-4.14-1.14-3.45,.17-4.63,.46-6.79,1.68-.56,.31-1.31,.49-1.62,.97-.44,.66-1.16,1.05-1.49,1.78-.22,.5-.58,.95-.77,1.47-.23,.62-.36,1.27-.37,1.95-.02,2.01-.26,2.05,1.32,3.75,.2,.21,.43,.5,.43,.75,0,.88,.47,1.7,.38,2.56-.14,1.32,.24,2.55,.53,3.78,.4,1.7,2.87,2.25,4.56,1.61,1.47-.56,2.73-1.51,3.75-2.74Zm4.87-10.86c-.7,1.39-1.38,2.79-2.3,4.06-.14,.19-.14,.46-.23,.78-.41-.48-.99-.5-1.54-.69,.22-.94,1.25-1.45,.97-2.49-.22-.83-.25-1.76-1.33-2.21,1.02-.14,1.73-.58,2.41-1.07,.07-.32,.31-.63-.09-.93l3.04-.16c.13,1.06-.51,1.85-.94,2.71Zm-4.24-6.08c1.87-.04,3.44,.78,4.91,1.82,.34,.24,.34,.67,.14,1.06-.67-.04-1.28-.09-1.94-.45-1.32-.72-2.74-1.27-4.21-1.69-.6-.17-1.3,.14-1.99-.52,1.14-.08,2.12-.2,3.09-.22Zm-4.71,.57c2.25,.82,4.61,1.1,6.74,2.12,.02,0,0,.09,0,.25-1.2,.03-2.36,.54-3.62,.07-1.89-.7-3.91-.72-5.97-1.01,.84-.98,2.08-.72,2.86-1.44Zm-3.38,1.89c1.48,.63,3.19,.34,4.98,1.03-2.31,.76-4.56,.82-6.65,1.58,.2-1.21,.3-1.35,1.67-2.61Zm-2.23,3.35c.51-.53,1.23-.54,1.84-.59,1.77-.14,3.5-.52,5.26-.76,1.3-.18,2.59-.47,3.91-.58,.27-.02,.43-.2,.66-.24,.23-.04,.33,.13,.37,.51-.64,.14-1,.72-1.76,.65-.55-.05-1.02,.53-1.69,.65-.68,.12-1.43,.46-2.1,.78-.86,.42-1.78,.68-2.65,1.04-1.29,.52-2.62,.99-3.98,1.54-.5-1.05-.12-2.03,.15-3Zm-.2,3.42c1.71-.68,3.42-1.12,5.07-1.71,1.66-.6,3.26-1.37,5.1-1.8,.26,.55,.78,1.05,.72,1.85-.06,.67-.23,1.27-.61,1.84-.21,.32-.4,.47-.77,.49-1,.05-1.98,.29-2.96,.39-.98,.1-1.8,.73-2.8,.61-.58,.45-1.28,.56-2.11,.68-.22-.87-1.25-1.33-1.63-2.34Zm1.68,2.81c.67,.31,1.11-.59,1.76-.3,1.31-.39,2.66-.66,4.01-.89,1.23-.21,2.46-.36,3.8,.24l-3.41,1.91c-.9,.5-1.81,.99-2.69,1.52-.64,.39-1.4,.6-1.84,1.32-.16,.26-.59,.49-1.1,.52-.1-1.46-.22-2.9-.52-4.32Zm.83,5.39c-.02-.17-.18-.33-.29-.54l9.56-5.36c-.28,1.95-1.39,3.37-2.55,4.73-.72,.84-1.53,1.62-2.56,2.16-.94,.5-1.87,.5-2.85,.29-.71-.15-1.22-.49-1.31-1.28Z"/><path class="cls-1" d="M83.13,11.71c-2.1-1.32-3.27-1.66-6.71-2-1.21-.12-2.97,.32-4.19,.94-.25,.13-.45,.33-.72,.41-1.24,.34-1.5,1.37-1.58,2.42-.1,1.2,.42,2.31,.85,3.38,.69,1.71,1.57,3.33,2.35,5,.14,.31,.19,.66,.24,1,.26,1.73,1.29,3.05,2.29,4.39,.96,1.28,2.18,2.29,3.62,2.91,1.65,.72,4.15,.29,4.63-1.39,.34-1.21,.78-2.43,.71-3.75-.05-.86,.47-1.66,.5-2.54,0-.25,.26-.53,.46-.73,1.66-1.62,1.43-1.67,1.5-3.68,.02-.69-.07-1.34-.27-1.97-.17-.52-.5-.99-.7-1.5-.29-.75-1-1.17-1.41-1.85-.29-.49-1.03-.7-1.58-1.04Zm.17,.95c-2.08,.19-4.1,.12-6.01,.73-1.28,.41-2.42-.16-3.62-.24,0-.17-.01-.25,0-.25,2.17-.92,4.54-1.09,6.83-1.81,.75,.75,2,.55,2.79,1.57Zm-12.46-.78c1.52-.97,3.13-1.72,4.99-1.59,.98,.07,1.94,.23,3.08,.37-.72,.63-1.4,.29-2.01,.43-1.49,.34-2.93,.84-4.29,1.49-.68,.33-1.29,.34-1.96,.36-.19-.4-.16-.83,.19-1.06Zm.47,4.29c-.39-.87-.99-1.69-.81-2.75,1.01,.1,1.95,.19,3.03,.3-.41,.28-.18,.6-.13,.92,.66,.52,1.35,.99,2.36,1.18-1.1,.4-1.17,1.32-1.43,2.15-.32,1.02,.68,1.58,.85,2.53-.56,.16-1.14,.16-1.57,.62-.07-.31-.07-.59-.19-.79-.86-1.31-1.48-2.74-2.11-4.16Zm11.69,11.92c-.13,.79-.65,1.1-1.37,1.22-.99,.16-1.92,.11-2.84-.43-1-.59-1.77-1.4-2.45-2.28-1.09-1.41-2.14-2.88-2.33-4.85,3.14,1.96,6.2,3.87,9.3,5.8-.13,.2-.29,.36-.32,.53Zm.36-1.05c-.51-.05-.93-.3-1.08-.57-.41-.74-1.15-.99-1.78-1.41-.86-.57-1.75-1.1-2.62-1.65-1.07-.67-2.14-1.34-3.31-2.07,1.37-.53,2.59-.32,3.81-.06,1.34,.29,2.67,.62,3.96,1.08,.66-.26,1.06,.66,1.74,.38-.37,1.41-.55,2.84-.72,4.29Zm.8-4.76c-.82-.15-1.52-.3-2.07-.77-1,.08-1.8-.59-2.77-.74-.98-.14-1.95-.43-2.94-.53-.37-.04-.55-.2-.75-.53-.35-.59-.5-1.19-.52-1.87-.03-.8,.51-1.27,.8-1.81,1.82,.52,3.38,1.37,5.01,2.04,1.62,.67,3.31,1.19,4.99,1.95-.43,.99-1.48,1.39-1.74,2.26Zm1.71-2.68c-1.34-.62-2.64-1.14-3.91-1.73-.85-.39-1.76-.7-2.59-1.16-.65-.36-1.38-.73-2.06-.88-.66-.15-1.11-.75-1.66-.73-.76,.04-1.1-.56-1.73-.73,.06-.37,.17-.54,.39-.49,.22,.05,.38,.23,.65,.27,1.31,.17,2.59,.52,3.88,.76,1.74,.32,3.45,.78,5.22,1.01,.61,.08,1.32,.12,1.81,.68,.22,.98,.55,1.98,0,3.01Zm-.53-3.77c-2.05-.86-4.3-1.02-6.57-1.89,1.82-.6,3.52-.23,5.03-.79,1.31,1.32,1.4,1.47,1.54,2.69Z"/><path class="cls-1" d="M94.58,10.63c-1.84-.82-3.76-1.44-5.68-2.06-2.06-.67-4.2-1.02-6.34-1.38-2.07-.35-4.15-.49-6.24-.43-1.41,.04-2.86-.04-4.22,.26-2.24,.49-4.59,.56-6.68,1.65-.68-.25-1.06,.37-1.58,.57-.52,.2-1.08,.22-1.6,.52-1.9,1.13-3.85,2.19-5.79,3.27-.88,.49-1.47,1.39-2.45,1.72-.79,1.14-2.08,1.79-2.86,3.1-.46-.63-.6-1.37-1.22-1.51-.15-.85,.6-.87,.92-1.21-.08-.6-.07-1.17-.52-1.63,.27-.18,.52-.27,.65-.45,1.22-1.74,2.95-2.92,4.59-4.19,.71-.54,1.25-1.35,2.17-1.61,1.12-1.27,2.56-2.21,3.55-3.63,.28-.4,.65-1.04,1.25-1.07,1.1-.05,1.84-.8,2.74-1.24,.56-.27,.55-.48,.21-1.3-.63-.02-1.18,.15-1.74,.45-.49,.26-.68,.78-1.15,1.02-.67,.35-1.11,.96-1.62,1.5-.83,.86-1.6,1.8-2.56,2.48-.74,.52-1.25,1.35-2.17,1.61-.52,1.05-1.94,1.02-2.46,2.06-.87,.25-1.47,.95-2.02,1.54-.58,.62-1.3,1.13-1.78,1.9-.6,.95-1.65,1.18-2.78,.95-.34-.07-.66-.18-1.06-.29-.1-.52-.59-.76-.95-1.12-1.39-1.39-2.88-2.66-4.49-3.79-1.08-.76-2.21-1.46-3.19-2.34-.51-.45-1.11-.8-1.58-1.31-1.6-1.76-3.21-3.51-5.45-4.5-.26,.22-.68,.22-.79,.6,.42,.94,1.25,1.37,2.15,1.69,.46,.17,1.13,.14,1.37,.45,.51,.68,1.3,1.04,1.76,1.77,.38,.61,.92,1.13,1.52,1.59,1.73,1.33,3.36,2.79,5.21,3.97,.4,.76,1.48,.86,1.74,1.76,.88,.38,1.25,1.33,2.12,1.87-.38,.79-.21,1.43,.63,1.85,.14,.07,.19,.31,.26,.45-.27,.35-.75,.38-.75,.87-.3-.36-.69-.53-.97-.85-.57-.64-1.24-1.23-1.95-1.7-1.18-.78-2.29-1.65-3.52-2.38-1.93-1.15-3.91-2.21-6.02-2.91-2.02-.67-4.08-1.26-6.21-1.63-2.13-.37-4.26-.49-6.4-.51-2.87-.03-4.86,.42-7.99,1-2.28,.42-4.4,1.33-6.66,1.76-1.32,.8-2.91,1.04-4.16,1.99-.22,.17-.42,.32-.6,.57-1.49,2.05-1.56,4.15-.4,6.34,.41,.78,.86,1.55,1.3,2.32,.14,.25,.26,.64,.47,.7,.47,.14,.57,.53,.72,.86,.18,.38,.66,.35,.81,.77,.12,.34,.32,.64,.74,.83,.33,.15,.52,.61,.83,.91,.72,.7,1.61,1.26,2.2,2.06,.82,1.12,1.75,2.17,2.33,3.46,.27,.59,.71,1.08,1.15,1.59,1.21,1.4,2.64,2.3,4.39,2.83,.98,.3,1.98,.36,3.03,.59-.28,1.01-.77,1.91-.75,2.81,.05,2.12,.13,4.27,1.34,6.16,.54,.84,1.05,1.69,1.68,2.48,.75,.96,1.59,1.82,2.43,2.68,1.82,1.87,3.98,3.34,6.2,4.69,1.91,1.16,3.99,2.01,6.19,2.52,2.23,.52,4.34,.21,6.37-.78,.66-.32,1.29-.72,1.94-1.08,1.09-.59,1.84-1.53,2.61-2.46,.93-1.13,1.59-2.38,1.96-4.02,.34,.6,.77,1.02,.77,1.44,0,1.54,1.43,2.19,1.98,3.37,.11,.24,.49,.63,.78,.72,1.37,.41,2.22,1.78,3.7,1.94,1,.81,2.21,.62,3.36,.73,1.94,.19,3.71-.57,5.49-1.14,1.34-.43,5.81-3.3,7.1-4.28,.19-.69,.94-.74,1.35-1.19,.83-.91,1.71-1.78,2.54-2.69,1.7-1.86,3.07-3.93,3.47-6.46,.28-1.73,.38-3.5-.44-5.16-.2-.41-.19-.73,.14-.99,1.53-.07,2.99-.3,4.31-1.06,.57-.33,1.07-.79,1.59-1.16,.95-.67,1.59-1.55,2.23-2.44,.59-.82,1.06-1.71,1.61-2.56,.71-1.09,1.47-2.14,2.65-2.78,1.56-1.9,3.42-3.57,4.66-5.7,.97-1.67,1.56-3.51,1-5.55-.39-1.41-1.18-2.51-2.44-3.07Zm-42.82,11.56c.97,.07,1.67,.64,2.46,.93,.37,.14,.78,.31,1.17,.46,.71,.28,1.47,.34,2.14,.8,.64,.44,1.52,.15,2.23,.44,1,.41,2.07,.43,3.1,.61,1.16,.2,2.36,.22,3.48,.6,1.96,.66,3.84,1.53,5.69,2.45,.36,.18,.37,.55,.59,.79,.5,.55,.18,1.26,.32,1.89,.05,.21-.3,.76-.73,.93-.35,.14-.59-.14-.88-.23-1.04-.34-1.79-1.14-2.77-1.59-.76-.35-1.53-.68-2.3-.77-2.06-.23-4.01-.86-5.9-1.55-1.29-.47-2.56-1.14-3.65-2.17-1.17-1.11-2.71-1.83-4.05-2.77-.29-.2-.71-.27-.9-.83Zm17.8-2c-4.85-.32-9.45,.11-14.06,.28-.09,0-.18,.02-.37,.05,.24-.46,.8-.45,.98-.76,.22-.38,.53-.34,.83-.47,.27-.11,.89-.15,.45-.86-1.07,.7-2.31,1-3.48,1.48,.31-.35,.98-.87,1.24-.94,1.83-.56,3.2-1.33,4.68-2.62,.07-.06,.17-.11,.26-.14,1.65-.64,2.79-2.06,4.7-2.92,.01,0,.26,.22,.53,.28,1.02,.21,1.66,.94,1.82,1.81,.12,.65,.41,1.16,.69,1.69,.52,1,1.09,1.96,1.73,3.12Zm-14.16,.99c2.86-.19,5.73-.31,8.6-.4,.86-.03,1.73,.14,2.6-.07,.37-.09,1.71,.65,2.56,1.1,.41,.22,.74,.62,1.25,.57,.16,.85-.2,1.6-.36,2.27,.13,.48,.45,.67,.74,.75,.86,.22,1.23,.99,1.72,1.56,.25,.28,.51,.97,.14,1.48-1.93-1.23-3.89-2.37-6.12-3.02-2.12-.62-4.31-.75-6.45-1.2-1.93-.41-3.91-.8-5.7-1.76-.17-.09-.38-.11-.61-.18,.15-.39,.48-.42,.67-.65,.18-.22,.51-.42,.94-.45Zm-1.41,7.45c-.66-1.02-1.21-2.12-1.72-3.23,.55,.29,.65,.95,1.06,1.38,.15-.11,.32-.17,.36-.28,.1-.26-.24-.43-.22-.65,.02-.15,.23-.27,.31-.43,.09-.19-.29-.44,.16-.67,.4,.23,.92,.43,1.3,.78,3.38,3.02,6.01,3.67,9.26,4.55,.71-.25,1.36,.2,2.08,.2,.99,0,1.87,.65,2.78,1.05,.79,.35,1.51,.85,2.22,1.36,.36,.25,.44,.48,.56,.86,.29,.88,.05,1.74,.12,2.75-.7-.88-1.61-1.33-2.32-2.05-.65-.65-1.57-1.04-2.37-1.54-.08,.77,.63,1.04,1.04,1.4,.57,.51,1.08,.99,1.28,1.76,.06,.22,.24,.41,.39,.6,.05,.06,.18,.06,.3,.09l-.2,.97c.61,.34,1.21,.17,1.9,.12,.45,1.31,.23,2.62-.03,3.95-1.19-.86-1.78-2.28-3-3.15-.06,.19-.11,.27-.1,.34,.09,.56,.89,.74,.88,1.17,0,.57,.35,.88,.51,1.32,.18,.53,.59,.74,1.12,.75-.07,.4-.39,.41-.66,.51-.95-1.14-1.85-2.32-2.86-3.4-.97-1.03-1.76-2.25-3.05-3.07,.01,1.06,1.04,1.41,1.43,2.17,.36,.7,1.03,1.24,1.57,1.87l-.3,.27c-.02,.36,.43,.18,.56,.51,.13,.33-.29,.89,.43,1.06,.27,.06,.45,.56,.65,.83,.62-.14,.28-.54,.24-.86,.57,.19,.46,.98,1.09,.97,.02,.34-.19,.61-.14,.97,.06,.45,.07,1.13-.48,1.19-.37,.04-.54,.48-.92,.32-.16,.32,.66,.66-.11,.99-.47-.32-.46-1.13-.94-1.33-.49-.2-.87-.46-1.33-.75l1.25,2.24c-.24,.2-.31,.09-.38-.04-.19-.34-.42-.67-.57-1.03-.64-1.53-1.88-2.67-2.69-4.1-.44-.77-1.31-1.27-2.12-1.69-.65-.33-1.31-.72-2.03-.56-1.01-1.2-1.71-2.53-2.6-3.7-.83-1.09-1.49-2.24-2.14-3.41-.61-1.08-.87-2.32-1.56-3.38Zm11.03,17.78l.68,1.21c.03,.38-.21,.43-.34,.6l.31,.8c-.61-.22-.95-.8-1.61-.81,0,.44,.55,.89-.04,1.38-.37,.1-.75-.14-1.15-.26-.49-3.16-1.34-6.21-2.36-9.31,.63-.27,1.25,.03,1.71,.34,.87,.59,1.64,1.28,2.32,2.14,.82,1.03,1.47,2.14,2.08,3.28,.22,.41,.8,.39,.89,1.05-.62,.58-.39,1.65-1.2,2.15-.26,.05-.42-.15-.37-.31,.11-.37,.6-.59,.36-1.13-.22-.52-.71-.66-1.26-1.13Zm-7.56,2.35c.18-.63-.15-.97-.63-1.18-.06-3.7-.07-7.38-.32-11.21,.66,.65,.43,1.4,.65,2.05,.73,.12,.23-.48,.33-.7l.81-.05c.67,1.39,.54,2.92,1.49,4.29,.06-.76-.18-1.35,.1-1.9,.58,.11,.18,.55,.27,.82,.52,1.52,.68,3.14,1.27,4.65,.08,.21,.03,.36,0,.55-.16,1.17-.16,2.37-.56,3.49-.17,.48-.12,.92,.11,1.29-.45,.6-.57-.09-.85-.09l-.12,.33c-.18,.16-.38-.07-.58-.11-.14-.03-.14-.35-.4-.26-.09,.25,.35,.7-.3,.74-.45-.34-.38-.9-.56-1.36-.18-.45-.1-1.1-.71-1.35ZM14.68,32.17c-.56-.5-1.21-.9-1.49-1.62-.26-.65-.99-.87-1.24-1.54-.24-.64-.54-1.34-1.02-1.78-.54-.5-.98-1.12-1.56-1.54-.57-.41-1-.93-1.54-1.36-.99-.8-1.94-1.66-2.87-2.53-1.2-1.14-2.51-3.43-2.8-4.88-.1-.49-.15-1.03-.03-1.5,.26-1.03,.15-2.13,.65-3.1,.22-.41,.6,.11,.92-.19,.84-.76,2-.9,3-1.32,1.31-.54,2.72-.86,4.11-1.22,1.41-.36,2.85-.61,4.29-.87,1-.18,1.99-.21,2.99-.33,.99-.12,2-.33,3.02-.07,.43,.11,.94-.13,1.35,0,.41,.13,.79-.12,1.18,.07,.43,.21,.93,.1,1.39,.15,1.03,.11,2.06,.22,3.07,.48,1.34,.34,2.68,.66,3.97,1.13,1.93,.71,3.85,1.46,5.64,2.52,1.19,.7,2.33,1.45,3.47,2.22,1.17,.79,2.16,1.81,3.28,2.67,.43,.32,.42,.88-7.38-2.27,.32,.21-1.05-.61-1.54-.8-.65-.43-1.29-.88-1.91-1.36-.14-.11-.33-.15-.5-.25-.75-.48-1.54-.46-2.24-.08l.09,.04-.1-.04c-.25,.16-.48,.36-.7,.61-.62,.69-.82,1.55-1.24,2.32-.82,1.51-1.57,3.05-2.35,4.58-.39,.77-.45,1.7-.7,2.75-.04-.09,.01,.04,.08,.17,.56,1.07,.56,1.17-.43,1.69-1.22,.63-1.7,1.71-2.01,2.99,.13,.46,.6,.82,.13,1.53-.45,.68-.35,1.62,.31,2.29-.23,.59-.75,.33-1.11,.49-.63,.28-1.23,.63-1.81,1-.95,.6-1.95,.67-2.98,.34-1.17-.37-2.44-.48-3.44-1.37Zm29.13-5.99c-.66,.67-.72,1.58-1.07,2.37-.93,2.1-1.88,4.19-2.92,6.23-.66,1.29-1.42,2.56-2.31,3.73-.38,.49-.9,.74-1.43,.9-1.31,.39-1.66,.6-2.62,1.53-1,.97-1.85,2.04-2.42,3.36-.25,.07-.22-.39-.52-.35-.89,.79-1.07,2.12-1.92,2.83-.48,.08-.48-.47-.85-.37-.01-.02,.37-2.38,.38-2.47,.07-.88,.5-1.62,.91-2.38-.44-.13-.66,.37-1.03,.36-.15-.01-.2-.12-.09-.2,.92-.71,1.48-1.73,2.25-2.57,.77-.85,1.38-1.8,2.12-2.81-.51,.05-.79,.28-1.08,.59-.81,.87-1.54,1.81-2.42,2.62-.21,.19-.3,.27-.58,.31-.55,.07-.68,.71-1.11,1.02-.51,.37-.72,.57-1.32,.25-.6-.32-.51,.16-.67,.47-.54-.35-.04-1.03-.54-1.32,.41-.45,1.15-.47,1.01-1.23l-.51,.09c-.1-.03-.14-.14-.04-.21,.58-.42,1.14-.86,1.14-1.68,.82-.46,.82-1.82,2.02-1.72-.21-1.39,1.25-1.5,1.53-2.53-.65,.15-1.25,.44-1.62,.84-.43,.48-.86,.82-1.5,1.05l.15-.65-1.89,1.06c-.07-1.14,.94-1.02,1.56-1.77-.03,.05-.42-.24-.18-.38,.54-.31,.76-.99,1.41-1.15,.36-.09,.43-.49,.67-.68,.67-.54,1.49-.8,2.36-.81,1.11-.02,2.15-.41,3.22-.66,1.87-.44,3.61-1.21,5.23-2.25,.51-.33,1.09-.53,1.45-1.12,.28-.45,1.02-.41,1.31-1.06,.18-.41,1.01-.35,1.12-1,.27,.22,.55-.08,.94,.05-.74,.49-1.1,1.18-1.49,1.89,.59,.34,.85-.32,1.36-.2Zm-8.34,24.14c-.39-.11-.39-.53-.64-.82,.26-.92,.55-1.85,.78-2.8,.37-1.55,1.04-3.03,1.12-4.65,.02-.5,.26-.98,.42-1.57,.64,.56-.36,1.37,.58,1.79,.44-1.39,.4-2.9,1.02-4.25,.09,.02,.23,.08,.36,.07,.13,0,.26-.09,.38-.13,.12,.26-.2,.61,.26,.75,.69-1.13,.17-2.53,.71-3.71,.26,.11,.34,.26,.27,.48-.26,.82-.08,1.66-.14,2.49-.14,1.88-.13,3.76-.15,5.64-.02,1.34-.05,2.67-.19,4-.04,.38-.2,.21-.3,.3-.3,.27-.68,.61-.4,1.2-.51,.05-.92-.06-1.21,.27-.07,.72,.07,1.47-.19,2.18-.5,.12-.88-.11-1.32-.25-.28-1.3-.77-2.58-.19-3.95-.74,.86-1.3,1.76-1.17,2.95Zm-3.58-1.89c-.5-.06-.75,.17-.84,.61-.08-.03-.18-.03-.23-.09-.5-.56-.44-1.21-.06-1.73,.28-.37,.31-.76,.47-1.19l-.58,.09c-.07-.35,.17-.54,.34-.81,.8-1.28,1.6-2.56,2.6-3.69,.67-.76,1.38-1.54,2.55-1.53,.13,0,.25-.1,.53-.22-.14,.51-.26,.9-.37,1.3-.52,1.87-1.13,3.72-1.27,5.77-.45-.16-.71-.22-.81,.09-.29,.97-.48,1.97-1.13,2.82l-.9-.26c.27-.49-.19-.79-.31-1.17Zm10.42-23.93c-.46,.17-1.04,.33-1.18,.96,0,.03-.08,.05-.12,.07-1.24,.55-2.07,1.7-3.34,2.23-1.34,.55-2.68,1.08-4.09,1.4-.75,.17-1.46,.47-2.27,.5-.7,.03-1.47,.26-2.12,.52-1.17,.46-2.23,1.21-3.32,1.86-.12,.07-.07,.38-.31,.45-.09,0-.2,.02-.27-.03-.51-.32-1.19-.39-1.18-1.33,.01-1.02,.19-1.92,1.05-2.45,.75-.47,1.45-1.15,2.46-1.09,.12,0,.26-.13,.39-.21,1.86-1.02,3.9-1.44,5.96-1.8,.85-.15,1.71-.21,2.56-.38,.85-.17,1.72-.39,2.51-.68,.88-.32,1.8-.54,2.65-1.02,.89-.5,1.96-.67,2.89-1.25-.24,.54-.52,1.07-1.12,1.21-.58,.14-.6,.82-1.15,1.03Zm-.55-1.68c-.36,.03-.72,.29-1.03,.52-.34,.25-.71,.05-1.08,.22-1.6,.73-3.33,.95-5.06,1.18-.76,.1-1.54,.18-2.28,.4-.75,.22-1.51,.51-2.26,.73-1.95,.57-3.51,1.83-5.29,2.68-.17,.08-.31,.26-.53,.16,.16-1.7,1.14-2.76,2.62-3.34,.53-.97-.84-1.57-.05-2.71,.34-.19,1.07-.51,1.69-.97,1.11-.8,2.36-.78,3.62-.76,1.42,.03,2.85,.01,4.26,.13,1.84,.16,3.69-.1,5.52,.23,.12,.02,.34-.13,.39-.09,.69,.74,1.44,.54,2.23,.15-.89,.57-1.61,1.36-2.74,1.45Zm.23-2.68l1.29,.19c-.13,.41-.34,.37-.6,.35-1.52-.11-3.04-.2-4.56-.28-1.61-.08-3.22-.15-4.83-.2-.41-.01-.82,.06-1.23,.08-1.46,.06-2.92,.28-4.38,.01-.04-.66,.4-1.25,.74-1.75,.78-1.13,1.1-2.46,1.83-3.59,.03-.04,.02-.1,.04-.14,.29-.48,.57-1.13,1.16-1.13,.54,0,1.16-.02,1.68,.38,.98,.74,2,1.43,3.02,2.11,1.53,1.02,3.18,1.86,4.82,2.69,.29,.15,.53,.39,.85,.47,.44,.11-.12,.43,.18,.81Zm1.98,33.06c-.55,.92-1.46,1.39-2.36,1.79-1.86,.82-3.78,1.12-5.82,.65-2.01-.46-5.17-2.37-6.75-3.78-.67-.6-1.53-1-2.2-1.6-1.5-1.33-3.21-2.44-4.38-4.13-.77-.37-1.05-1.14-1.32-1.82-.32-.79-.47-1.67-.6-2.53-.13-.87,0-1.74,.07-2.61,.12-1.41,.56-2.74,.95-4.09,.1-.34,.09-.64,.04-.97,.71-.73,1.84-.45,2.49-1.13,.39,.18,.34,.42,.25,.65-.25,.68-.28,1.4-.23,2.09,.1,1.35-.16,2.66-.2,4-.03,1.22,.21,2.34,.91,3.31,.23,.31,.65,.48,1.02,.74-.07,2.26,1.71,4.13,3.59,4.01-.03,1.18,.88,1.67,1.66,2.22,1.05,.74,2.18,.77,3.45,.2,.38,1,1.38,1.41,2.2,1.94,.91,.58,2,.23,2.97-.14,.54-.21,1.03-.56,1.55-.85,1.35,.3,2.11,.87,2.73,2.05Zm.96-4.83c.14,.6,.12,1.15-.34,1.65,.37,.41,.38,1.01,1.01,1.21,.44,.14-.16,.66,.21,.9,.33,.17,.51-.23,.8-.21,.13,.01,.17,.09,.08,.2-.54,.67-1.08,1.34-1.64,2.04-.76-2.42-1.92-3.75-4.2-3.65,.24-.76,.24-1.54,.18-2.37,.48,.27,.6,.59,.38,1.11l.58-.15c.67,.21,.09,.91,.43,1.19,.22,.13,.32-.01,.45-.06-.13-.81-.39-1.62-.36-2.42,.04-.89-1.03-1.33-.72-2.27l-.56,.1c.04-4.18,.08-8.35,.11-12.57,.62,.22,.44,.72,.57,1.07,.09-.03,.16-.04,.17-.07,.26-.77,.37-1.56,.71-2.33,.28-.64,.48-1.48,.29-2.3,.4,.29,.44-.1,.59-.25,.33,.1,.26,.66,.71,.64,.11,.02,.06,.09,.07,.21,.17,3.87,.38,7.74,.53,11.61,.02,.51,.23,.97,.2,1.49-.07,1.47-.07,2.95-.27,4.42-.04,.29-.04,.57,.02,.83Zm5.19,2.87c-1.14-2.44-1.37-5-1.16-7.75,.31-.3,.76-.68,.95-1.3,.55-1.78,.8-3.6,.8-5.46,0-.87-.02-1.74-.03-2.6-.01-1.48-.24-2.92-.58-4.33-.18-.73-.65-1.41-1.08-2.06-.17-.26-.55-.31-.91-.11-.53,.3-.81,.76-1,1.3-.57,1.69-.84,3.42-.93,5.19-.1,1.93,.05,3.83,.46,5.72,.41,1.91,.37,1.93,1.49,3.39,.05,.07,.13,.06,.13,.18-.01,2.47,.25,4.97-.86,7.32-.02,.04-.08,.05-.18,.1-.34-.25-.48-.6-.56-1.04-.28-1.48-.47-2.97-.62-4.46-.59-5.67-.75-11.36-1.05-17.05-.07-1.32,.02-2.65-.02-3.98,0-.12,.08-.24,.2-.54,.41,1.02,1.02,1.58,1.96,1.88,.78,.25,1.51,.17,2.2-.05,.72-.23,1.36-.69,1.59-1.61,.65,.81,1,1.57,.82,2.64-.17,.98,0,2.01-.03,3.01-.1,2.9-.11,5.79-.22,8.69-.08,2.2-.29,4.4-.28,6.62,0,.92-.14,1.86-.29,2.78-.19,1.17-.2,2.4-.8,3.54Zm2.35,1.29c-.46-.45,.35-.97-.2-1.41-.31,.17-.14,.59-.37,.78-.19,0-.29-.18-.28-.29,.06-.84,.16-1.67,.25-2.5,.02-.19,.19-.35,.06-.56-.63-1.03-.2-2.09-.11-3.15,.14-1.66,.24-3.32,.36-4.98,.15-2.12,.05-4.24,.23-6.35,.04-.45-.03-.91-.04-1.37-.01-.91-.02-1.83-.02-2.74,0-.46,.49-.61,.54-1.01,.44,.11,.17,.32,.2,.46,.18,.16,.33-.04,.5-.05,.15,0,.12,.05,.12,.18-.02,1.19,.07,1.78,.71,2.83,.33,.55,.11,1.14,.32,1.68,.7-.25,.33-.81,.43-1.22,.72,.34,.58,1.05,.6,1.61,.13,3.01,.2,6.02,.3,9.03,.02,.68-.01,1.38,.09,2.05,.17,1.17,.11,2.25-.8,3.11-.17,.16-.2,.34-.22,.52-.04,.32,.18,.73-.09,.94-.16,.12-.5-.02-.51,.37,0,.42-.47,.48-.6,.73-.15,.28-.28,.54-.57,.59-.44,.08-.29,.74-.88,.74Zm23.28-18.18c.21,1.59,.71,3.11,1.01,4.68,.48,2.51-.37,5.43-2.02,7.25-1.07,1.19-2.26,2.26-3.32,3.45-.4,.45-.96,.73-1.42,1.13-.66,.58-1.25,1.33-2.15,1.62-.75,1.02-1.99,1.32-2.96,2.01-1.39,.98-3.06,1.09-4.64,1.48-.41,.1-.93-.08-1.39-.11-2.06-.15-3.91-.96-5.42-2.15-.07-.06-.1-.17-.2-.35,.35-.45,.69-.99,1.11-1.43,.95-.99,1.52-1.05,2.64-.32,.73,.48,1.48,.67,2.37,.57,1.17-.13,2.07-.73,2.86-1.48,.48-.46,.85-.69,1.49-.46,.71,.26,1.38,.12,2.03-.29,.84-.53,1.85-.85,2.07-2.02,.08-.41,.56-.6,.77-.57,1.09,.19,1.53-.72,2.07-1.25,.58-.57,.9-1.43,.73-2.35-.02-.09,.05-.19,.11-.41,1.23-.53,1.74-1.56,1.74-2.99,0-1.06,.04-2.08-.19-3.14-.14-.64-.2-1.39-.07-2.03,.17-.84-.14-1.55-.28-2.42,.86,.38,1.78,.37,2.55,.94,.26,.19,.48,.38,.51,.64Zm18.39-21.57c0,1.1,.42,2.12,.3,3.28-.12,1.2-.61,2.17-1.12,3.14-.82,1.54-2.08,2.76-3.35,3.95-1.79,1.69-3.65,3.34-4.94,5.48-.21,.35-.44,.7-.61,1.09-.58,1.28-1.68,2.15-2.66,3.11-1.04,.2-1.97,.8-3.06,.81-.36,0-.72,.09-1.08,.12-.61,.04-1.16-.05-1.69-.45-.73-.55-1.5-1.13-2.64-.95,.12-.41,.21-.81,.34-1.2,.13-.42,.16-.94-.02-1.21-.36-.55-.17-1-.1-1.52,.09-.7,0-1.48-.5-1.98-.69-.69-1.19-1.68-2.37-1.79,.65-.78,.65-1.53,.41-2.42-.55-2.01-1.86-3.61-2.73-5.44-.26-.55-.61-1.01-.68-1.7-.09-.83-.81-1.5-1.45-2.06-.65-.56-1.49-.28-2.13-.03-.63,.25-1.43,.42-1.73,1.22-.03,.07-.15,.11-.23,.17-1.43,1.03-7.63,4.81-8.9,5.3-.5,.19-1.08,.22-1.59,.6-.02-1.53,1.03-2.28,1.88-3.07,1.06-.99,2.29-1.81,3.42-2.71,1.27-1.01,2.72-1.64,4.03-2.54,.61-.42,1.33-.48,1.97-.76,.6-.25,1.11-.66,1.84-.74,.61-.07,1.18-.5,1.84-.68,1.77-.48,3.55-.82,5.37-1.1,1.59-.25,3.18-.26,4.77-.33,1.71-.08,3.43,.06,5.12,.34,2.52,.41,5.07,.8,7.46,1.7,1.33,.5,2.72,.84,4.01,1.49,.45,.23,.83,.54,.83,.9Z"/></g><g><path class="cls-2" d="M141.85,44.58c0,.18-.03,.27-.09,.27-1,0-1.81-.01-2.41-.05l-3.28-.05-3.19,.05c-.55,.03-1.32,.05-2.32,.05-.06,0-.09-.09-.09-.27s.03-.27,.09-.27c1.34,0,2.23-.15,2.69-.46,.46-.3,.68-.94,.68-1.91l-.05-.77-.91-19.31-9.7,22.67c-.06,.12-.18,.18-.36,.18-.15,0-.29-.06-.41-.18l-11.38-22.49-.41,17.3c-.03,1.61,.28,2.84,.93,3.69,.65,.85,1.63,1.27,2.94,1.27,.09,0,.14,.09,.14,.27s-.05,.27-.14,.27c-.82,0-1.46-.01-1.91-.05l-2.5-.05-2.69,.05c-.46,.03-1.09,.05-1.91,.05-.09,0-.14-.09-.14-.27s.05-.27,.14-.27c1.24,0,2.21-.42,2.89-1.27,.68-.85,1.04-2.08,1.07-3.69l.41-19.58c-.55-.97-1.15-1.68-1.8-2.14-.65-.46-1.4-.68-2.25-.68-.09,0-.14-.09-.14-.27s.05-.27,.14-.27l1.96,.05c.39,.03,.91,.05,1.55,.05l2.14-.05c.24-.03,.55-.05,.91-.05,.39,0,.71,.14,.96,.43,.24,.29,.62,.93,1.14,1.94l10.02,19.53,9.06-20.76c.18-.42,.38-.72,.59-.89,.21-.17,.47-.25,.77-.25,.21,0,.49,.02,.82,.05,.33,.03,.74,.05,1.23,.05l2.46-.05c.39-.03,.99-.05,1.78-.05,.06,0,.09,.09,.09,.27s-.03,.27-.09,.27c-1.46,0-2.51,.27-3.16,.8-.65,.53-.95,1.4-.89,2.62l1,20.81c.06,.94,.18,1.62,.36,2.05,.18,.43,.5,.71,.96,.87,.46,.15,1.2,.23,2.23,.23,.06,0,.09,.09,.09,.27Z"/><path class="cls-2" d="M158.82,41.99c.06,0,.13,.06,.2,.18,.08,.12,.08,.21,.02,.27-1.12,1.03-2.25,1.78-3.37,2.25-1.12,.47-2.34,.71-3.64,.71-1.85,0-3.45-.41-4.8-1.23-1.35-.82-2.38-1.9-3.1-3.23-.71-1.34-1.07-2.78-1.07-4.33,0-1.79,.44-3.43,1.32-4.92,.88-1.49,2.09-2.66,3.62-3.53,1.53-.87,3.24-1.3,5.12-1.3s3.23,.44,4.23,1.32c1,.88,1.5,2.19,1.5,3.92,0,.88-.18,1.32-.55,1.32l-11.11,.05c-.03,.27-.05,.68-.05,1.23,0,2.67,.61,4.79,1.84,6.35,1.23,1.56,2.98,2.35,5.26,2.35,.85,0,1.56-.1,2.14-.3,.58-.2,1.35-.55,2.32-1.07l.09-.05Zm-10.09-12.91c-.71,.87-1.19,2.06-1.43,3.57l7.29-.14c-.06-3.16-1.09-4.74-3.1-4.74-1.12,0-2.04,.43-2.75,1.3Z"/><path class="cls-2" d="M174.07,41.94c.09,0,.17,.06,.25,.18,.08,.12,.07,.21-.02,.27-1.12,1.06-2.19,1.83-3.19,2.3s-2.06,.71-3.19,.71c-1.31,0-2.41-.31-3.3-.93-.9-.62-1.34-1.66-1.34-3.12v-10.29c0-1-.16-1.67-.48-2-.32-.33-.93-.5-1.84-.5-.03,0-.07-.04-.11-.11-.05-.08-.07-.16-.07-.25s.02-.17,.07-.25c.05-.08,.08-.11,.11-.11,2.85-.12,4.64-1.35,5.37-3.69,.06-.12,.19-.18,.39-.18s.3,.06,.3,.18v3.6c1.43-.03,3.44-.18,6.06-.46,.06,0,.13,.11,.2,.34,.08,.23,.11,.48,.11,.75s-.05,.55-.16,.82c-.11,.27-.22,.39-.34,.36-1.7-.39-3.66-.64-5.87-.73v11.02c0,1.18,.3,2.06,.89,2.62,.59,.56,1.42,.84,2.48,.84,1.27,0,2.47-.44,3.6-1.32l.09-.05Z"/><path class="cls-2" d="M193.44,42.4c.12,0,.2,.07,.23,.2,.03,.14-.02,.24-.14,.3l-4.69,2.23c-.12,.06-.26,.09-.41,.09-.46,0-.89-.27-1.3-.8-.41-.53-.68-1.24-.8-2.12l-2.09,1.46c-.73,.52-1.39,.88-1.98,1.09-.59,.21-1.25,.32-1.98,.32-1.25,0-2.19-.3-2.85-.89-.65-.59-.98-1.37-.98-2.34,0-.82,.22-1.49,.66-2,.44-.52,1-.93,1.68-1.25s1.69-.72,3.03-1.21l4.42-1.64v-2.73c0-1.88-.19-3.26-.57-4.12-.38-.87-.98-1.3-1.8-1.3-1,0-1.72,.37-2.16,1.12-.44,.74-.71,1.57-.8,2.48-.18,1.55-.96,2.32-2.32,2.32-.67,0-1.16-.15-1.48-.46-.32-.3-.48-.68-.48-1.14,0-.85,.51-1.68,1.53-2.48,1.02-.8,2.25-1.46,3.69-1.96,1.44-.5,2.71-.75,3.8-.75,1.3,0,2.34,.41,3.12,1.23,.77,.82,1.16,2.05,1.16,3.69v8.2c0,.94,.15,1.65,.46,2.14,.3,.49,.74,.73,1.32,.73,.46,0,1-.14,1.64-.41h.09Zm-7.19-.82v-4.96l-2.73,1.14c-.79,.3-1.43,.66-1.94,1.07s-.75,.99-.75,1.75,.23,1.31,.71,1.75c.47,.44,1.04,.66,1.71,.66,.55,0,1.12-.18,1.73-.55l1.27-.87Z"/><path class="cls-2" d="M227.63,44.58c0,.18-.06,.27-.18,.27-.76,0-1.37-.01-1.82-.05l-2.6-.05-2.6,.05c-.46,.03-1.06,.05-1.82,.05-.09,0-.14-.09-.14-.27s.05-.27,.14-.27c1,0,1.68-.22,2.05-.66,.36-.44,.55-1.27,.55-2.48v-6.78c0-1.7-.3-2.96-.89-3.78-.59-.82-1.5-1.23-2.71-1.23-.82,0-1.64,.2-2.46,.59-.82,.39-1.53,.93-2.14,1.59v9.61c0,1.25,.17,2.08,.52,2.5,.35,.43,1.04,.64,2.07,.64,.09,0,.14,.09,.14,.27s-.05,.27-.14,.27c-.76,0-1.37-.01-1.82-.05l-2.64-.05-2.6,.05c-.46,.03-1.06,.05-1.82,.05-.09,0-.14-.09-.14-.27s.05-.27,.14-.27c1.03,0,1.72-.21,2.07-.64,.35-.42,.52-1.26,.52-2.5v-6.78c0-1.7-.3-2.96-.89-3.78-.59-.82-1.5-1.23-2.71-1.23-.76,0-1.53,.18-2.32,.55-.79,.36-1.49,.85-2.09,1.46v9.79c0,1.25,.17,2.08,.5,2.5,.33,.43,1.02,.64,2.05,.64,.09,0,.14,.09,.14,.27s-.05,.27-.14,.27c-.76,0-1.35-.01-1.78-.05l-2.64-.05-2.64,.05c-.43,.03-1.02,.05-1.78,.05-.09,0-.14-.09-.14-.27s.05-.27,.14-.27c1.03,0,1.71-.21,2.05-.64,.33-.42,.5-1.26,.5-2.5v-8.7c0-.97-.11-1.68-.34-2.14s-.6-.68-1.12-.68c-.46,0-1.21,.23-2.28,.68h-.05c-.12,0-.21-.08-.27-.23-.06-.15-.05-.24,.05-.27l5.96-2.91c.18-.06,.29-.09,.32-.09,.3,0,.61,.34,.93,1.02,.32,.68,.49,1.57,.52,2.66,2.03-2.49,4.25-3.73,6.65-3.73,1.4,0,2.52,.34,3.37,1.02,.85,.68,1.38,1.68,1.59,2.98,2.15-2.67,4.46-4.01,6.92-4.01,1.61,0,2.85,.46,3.71,1.39,.87,.93,1.3,2.33,1.3,4.21v8.79c0,1.25,.17,2.08,.52,2.5,.35,.43,1.04,.64,2.07,.64,.12,0,.18,.09,.18,.27Z"/><path class="cls-2" d="M232.92,44.15c-1.4-.87-2.47-2.03-3.23-3.51-.76-1.47-1.14-3.07-1.14-4.8,0-1.97,.49-3.65,1.48-5.03,.99-1.38,2.25-2.41,3.78-3.1,1.53-.68,3.1-1.02,4.71-1.02,1.85,0,3.47,.44,4.85,1.32,1.38,.88,2.44,2.04,3.16,3.48,.73,1.44,1.09,2.98,1.09,4.62,0,1.82-.45,3.45-1.34,4.87-.9,1.43-2.1,2.53-3.62,3.3-1.52,.77-3.16,1.16-4.92,1.16s-3.43-.43-4.83-1.3Zm9.27-1.39c.71-1.18,1.07-2.91,1.07-5.19,0-2.03-.28-3.81-.84-5.33-.56-1.52-1.32-2.67-2.28-3.46-.96-.79-2-1.18-3.12-1.18-1.37,0-2.4,.56-3.1,1.68-.7,1.12-1.05,2.78-1.05,4.96,0,1.97,.27,3.74,.8,5.3,.53,1.56,1.27,2.79,2.23,3.67,.96,.88,2.03,1.32,3.21,1.32,1.34,0,2.36-.59,3.07-1.78Z"/><path class="cls-2" d="M263.59,27.51c.64,.46,.96,1,.96,1.64,0,.58-.17,1.05-.52,1.41-.35,.36-.83,.55-1.43,.55-.39,0-.72-.08-.98-.25-.26-.17-.52-.4-.8-.71-.27-.27-.52-.48-.73-.61-.21-.14-.47-.2-.77-.2-.33,0-.69,.13-1.07,.39-.38,.26-.96,.8-1.75,1.62v9.83c0,.85,.12,1.5,.36,1.94,.24,.44,.65,.75,1.23,.93,.58,.18,1.43,.27,2.55,.27,.12,0,.18,.09,.18,.27s-.06,.27-.18,.27c-1,0-1.81-.01-2.41-.05l-3.6-.05-2.64,.05c-.43,.03-1.02,.05-1.78,.05-.09,0-.14-.09-.14-.27s.05-.27,.14-.27c1.03,0,1.71-.21,2.05-.64,.33-.42,.5-1.26,.5-2.5v-8.7c0-.97-.11-1.68-.34-2.14s-.6-.68-1.12-.68c-.46,0-1.21,.23-2.28,.68h-.05c-.12,0-.21-.08-.27-.23-.06-.15-.05-.24,.05-.27l5.96-2.91c.18-.06,.29-.09,.32-.09,.3,0,.61,.33,.91,.98,.3,.65,.49,1.51,.55,2.57,1.18-1.34,2.17-2.26,2.96-2.78,.79-.52,1.5-.77,2.14-.77,.7,0,1.37,.23,2,.68Z"/><path class="cls-2" d="M283.74,12.5c.94,.47,1.41,1.1,1.41,1.89,0,.61-.2,1.09-.61,1.43-.41,.35-.89,.52-1.43,.52-.61,0-1.07-.14-1.39-.41-.32-.27-.61-.7-.89-1.27-.36-.64-.74-1.12-1.12-1.43-.38-.32-.92-.48-1.62-.48-1.52,0-2.72,.99-3.6,2.96-.88,1.97-1.32,5.02-1.32,9.15v2.82c1.58-.03,3.34-.17,5.28-.41,.09,0,.17,.11,.23,.32,.06,.21,.09,.47,.09,.77,0,.27-.05,.55-.14,.82-.09,.27-.2,.39-.32,.36-1.85-.42-3.57-.65-5.15-.68v12.29c0,.94,.1,1.62,.3,2.05,.2,.43,.58,.71,1.16,.87,.58,.15,1.49,.23,2.73,.23,.12,0,.18,.09,.18,.27s-.06,.27-.18,.27l-3.05-.05c-.67-.03-1.68-.05-3.05-.05l-2.69,.05c-.46,.03-1.11,.05-1.96,.05-.12,0-.18-.09-.18-.27s.06-.27,.18-.27c.82,0,1.43-.08,1.82-.25,.39-.17,.67-.46,.82-.89,.15-.42,.23-1.09,.23-2v-10.24c0-1-.2-1.64-.59-1.91-.39-.27-1.21-.41-2.46-.41-.09,0-.14-.14-.14-.41,0-.24,.05-.36,.14-.36,1.12,0,1.89-.14,2.3-.43,.41-.29,.63-.81,.66-1.57,.15-4.95,1.08-8.52,2.78-10.72,1.7-2.2,4.25-3.3,7.65-3.3,1.67,0,2.97,.24,3.92,.71Z"/><path class="cls-2" d="M283.82,44.15c-1.4-.87-2.47-2.03-3.23-3.51-.76-1.47-1.14-3.07-1.14-4.8,0-1.97,.49-3.65,1.48-5.03,.99-1.38,2.25-2.41,3.78-3.1,1.53-.68,3.1-1.02,4.71-1.02,1.85,0,3.47,.44,4.85,1.32,1.38,.88,2.44,2.04,3.16,3.48,.73,1.44,1.09,2.98,1.09,4.62,0,1.82-.45,3.45-1.34,4.87-.9,1.43-2.1,2.53-3.62,3.3-1.52,.77-3.16,1.16-4.92,1.16s-3.43-.43-4.83-1.3Zm9.27-1.39c.71-1.18,1.07-2.91,1.07-5.19,0-2.03-.28-3.81-.84-5.33-.56-1.52-1.32-2.67-2.28-3.46-.96-.79-2-1.18-3.12-1.18-1.37,0-2.4,.56-3.1,1.68-.7,1.12-1.05,2.78-1.05,4.96,0,1.97,.27,3.74,.8,5.3,.53,1.56,1.27,2.79,2.23,3.67,.96,.88,2.03,1.32,3.21,1.32,1.34,0,2.36-.59,3.07-1.78Z"/><path class="cls-2" d="M305.27,32.01c.65,.64,1.6,1.31,2.85,2,1.09,.61,1.94,1.11,2.53,1.5,.59,.39,1.11,.93,1.55,1.59,.44,.67,.66,1.47,.66,2.41,0,1.03-.26,1.99-.77,2.87-.52,.88-1.28,1.59-2.3,2.14-1.02,.55-2.22,.82-3.62,.82-1.67,0-3.2-.43-4.6-1.27-.18-.18-.27-.36-.27-.55l-.09-4.19c0-.09,.08-.14,.25-.16,.17-.01,.27,0,.3,.07,.52,1.52,1.3,2.76,2.34,3.73,1.05,.97,2.16,1.46,3.35,1.46,.76,0,1.35-.2,1.78-.59,.42-.39,.64-.99,.64-1.78,0-1.15-.33-2.07-1-2.75-.67-.68-1.64-1.36-2.91-2.03-1.03-.55-1.84-1.01-2.41-1.39-.58-.38-1.07-.89-1.48-1.55-.41-.65-.61-1.46-.61-2.44,0-1.73,.63-3.02,1.89-3.87,1.26-.85,2.78-1.27,4.58-1.27,1.18,0,2.4,.23,3.64,.68,.27,.12,.41,.29,.41,.5,0,.7-.02,1.24-.05,1.64l-.05,2.19c0,.09-.09,.14-.27,.14s-.27-.05-.27-.14c0-.61-.24-1.24-.73-1.89-.49-.65-1.11-1.19-1.87-1.62-.76-.42-1.53-.64-2.32-.64-1.4,0-2.09,.67-2.09,2,0,.94,.33,1.73,.98,2.37Z"/><path class="cls-2" d="M315.37,44.58c0-.18,.05-.27,.14-.27,1.03,0,1.71-.21,2.05-.64,.33-.42,.5-1.26,.5-2.5v-8.29c0-1.03-.11-1.78-.32-2.25-.21-.47-.58-.71-1.09-.71-.46,0-1.05,.18-1.78,.55h-.05c-.12,0-.21-.08-.27-.23-.06-.15-.05-.26,.05-.32l6.56-3.05,.14-.05c.12,0,.25,.07,.39,.2,.14,.14,.2,.25,.2,.34v.96c-.06,1.27-.09,2.78-.09,4.51v8.33c0,1.25,.17,2.08,.52,2.5,.35,.43,1.04,.64,2.07,.64,.09,0,.14,.09,.14,.27s-.05,.27-.14,.27c-.76,0-1.37-.01-1.82-.05l-2.64-.05-2.64,.05c-.43,.03-1.02,.05-1.78,.05-.09,0-.14-.09-.14-.27Zm2.48-23.18c-.44-.42-.66-1.03-.66-1.82s.22-1.34,.66-1.75c.44-.41,1.05-.61,1.84-.61s1.35,.2,1.78,.61c.42,.41,.64,.99,.64,1.75s-.2,1.4-.61,1.82c-.41,.43-1.01,.64-1.8,.64s-1.4-.21-1.84-.64Z"/><path class="cls-2" d="M330.9,32.01c.65,.64,1.6,1.31,2.85,2,1.09,.61,1.94,1.11,2.53,1.5,.59,.39,1.11,.93,1.55,1.59,.44,.67,.66,1.47,.66,2.41,0,1.03-.26,1.99-.77,2.87-.52,.88-1.28,1.59-2.3,2.14-1.02,.55-2.22,.82-3.62,.82-1.67,0-3.2-.43-4.6-1.27-.18-.18-.27-.36-.27-.55l-.09-4.19c0-.09,.08-.14,.25-.16,.17-.01,.27,0,.3,.07,.52,1.52,1.3,2.76,2.34,3.73,1.05,.97,2.16,1.46,3.35,1.46,.76,0,1.35-.2,1.78-.59,.42-.39,.64-.99,.64-1.78,0-1.15-.33-2.07-1-2.75-.67-.68-1.64-1.36-2.91-2.03-1.03-.55-1.84-1.01-2.41-1.39-.58-.38-1.07-.89-1.48-1.55-.41-.65-.61-1.46-.61-2.44,0-1.73,.63-3.02,1.89-3.87,1.26-.85,2.78-1.27,4.58-1.27,1.18,0,2.4,.23,3.64,.68,.27,.12,.41,.29,.41,.5,0,.7-.02,1.24-.05,1.64l-.05,2.19c0,.09-.09,.14-.27,.14s-.27-.05-.27-.14c0-.61-.24-1.24-.73-1.89-.49-.65-1.11-1.19-1.87-1.62-.76-.42-1.53-.64-2.32-.64-1.4,0-2.09,.67-2.09,2,0,.94,.33,1.73,.98,2.37Z"/></g></g></g></svg>